<!DOCTYPE svg PUBLIC "-//W3C//DTD SVG 20010904//EN" "http://www.w3.org/TR/2001/REC-SVG-20010904/DTD/svg10.dtd">
<svg version="1.0" xmlns="http://www.w3.org/2000/svg" width="1344px" height="240px" viewBox="0 0 13440 2400" preserveAspectRatio="xMidYMid meet">
<g id="layer101" fill="#920205" stroke="none">
 <path d="M0 1200 l0 -1200 6720 0 6720 0 0 1200 0 1200 -6720 0 -6720 0 0 -1200z"/>
 </g>
<g id="layer102" fill="#ffffff" stroke="none">
 <path d="M3985 2004 c-182 -36 -370 -183 -454 -355 -75 -156 -106 -365 -82 -559 17 -134 36 -201 88 -309 118 -245 367 -383 667 -368 192 9 333 70 445 193 56 61 122 188 125 236 l1 31 -145 33 c-80 18 -147 34 -150 34 -3 0 -11 -19 -18 -41 -44 -141 -185 -229 -344 -216 -172 15 -290 126 -332 314 -21 93 -21 331 -1 426 37 175 123 277 268 313 193 50 362 -59 419 -270 7 -25 15 -46 18 -46 13 1 290 87 295 91 3 3 -3 30 -14 60 -102 299 -317 451 -629 448 -48 0 -118 -7 -157 -15z"/>
 <path d="M10588 2001 c-223 -49 -364 -171 -413 -358 -8 -31 -15 -74 -15 -95 l0 -38 155 0 155 0 0 28 c1 38 32 102 66 134 55 51 119 72 235 76 216 8 332 -56 333 -184 2 -110 -43 -135 -379 -219 -277 -68 -358 -100 -430 -166 -160 -148 -152 -456 17 -620 108 -106 273 -155 492 -146 203 7 328 55 435 167 70 73 131 214 131 302 l0 28 -154 0 -154 0 -12 -51 c-10 -39 -24 -64 -59 -99 -57 -59 -119 -80 -236 -80 -99 0 -168 19 -217 60 -83 69 -71 197 24 246 16 8 148 45 291 80 315 78 392 110 471 195 32 35 60 77 70 106 24 67 31 180 17 254 -36 181 -142 292 -343 361 -85 28 -106 31 -243 34 -120 3 -167 0 -237 -15z"/>
 <path d="M420 1215 l0 -765 545 0 545 0 0 135 0 135 -382 2 -383 3 -3 173 -2 172 340 0 340 0 0 135 0 135 -340 0 -340 0 0 320 0 320 -160 0 -160 0 0 -765z"/>
 <path d="M1972 1338 c126 -354 248 -697 272 -763 l43 -120 189 0 188 0 263 745 c145 410 266 753 269 763 5 16 -8 17 -170 17 l-175 0 -49 -152 -48 -153 -284 0 -284 0 -50 153 -51 152 -171 0 -171 0 229 -642z m686 50 c-3 -7 -44 -140 -93 -296 -49 -155 -92 -279 -96 -275 -6 8 -189 564 -189 577 0 3 86 6 191 6 149 0 190 -3 187 -12z"/>
 <path d="M5160 1215 l0 -765 565 0 565 0 0 135 0 135 -407 2 -408 3 -3 158 -3 157 376 0 375 0 0 135 0 135 -375 0 -375 0 2 198 3 197 423 3 422 2 0 135 0 135 -580 0 -580 0 0 -765z"/>
 <path d="M6680 1215 l0 -765 233 0 234 0 139 603 c76 331 140 595 142 587 1 -8 62 -278 136 -600 l133 -585 231 -3 232 -2 0 765 0 765 -150 0 -150 0 0 -617 c0 -339 -2 -614 -4 -612 -4 3 -249 1087 -273 1202 l-6 27 -160 -2 -161 -3 -133 -603 c-72 -332 -134 -609 -137 -615 -2 -7 -5 266 -5 606 l-1 617 -150 0 -150 0 0 -765z"/>
 <path d="M8483 1968 c2 -7 125 -352 272 -766 l268 -752 188 0 187 0 20 58 c33 95 500 1415 511 1445 l11 27 -179 0 -178 0 -12 -42 c-7 -24 -28 -94 -48 -155 l-35 -113 -282 0 -282 0 -23 73 c-13 39 -37 109 -53 155 l-30 82 -170 0 c-132 0 -169 -3 -165 -12z m824 -855 c-49 -159 -93 -292 -97 -296 -4 -4 -21 36 -38 90 -18 54 -61 187 -96 296 l-64 197 193 0 192 0 -90 -287z"/>
 <path d="M11710 1215 l0 -765 160 0 160 0 0 290 0 290 300 0 300 0 0 -290 0 -290 160 0 160 0 0 765 0 765 -160 0 -160 0 0 -340 0 -340 -300 0 -300 0 0 340 0 340 -160 0 -160 0 0 -765z"/>
 </g>

</svg>